G04*
G04 #@! TF.GenerationSoftware,Altium Limited,Altium Designer,23.4.1 (23)*
G04*
G04 Layer_Color=2752767*
%FSLAX44Y44*%
%MOMM*%
G71*
G04*
G04 #@! TF.SameCoordinates,5B4701A4-F384-41A6-9C88-78B9FC1DD21D*
G04*
G04*
G04 #@! TF.FilePolarity,Positive*
G04*
G01*
G75*
%ADD52C,0.1270*%
%ADD53C,0.1693*%
D52*
X1018540Y266700D02*
X1021080Y269240D01*
X1023620D01*
X1021080Y271780D01*
X1023620Y274320D01*
X1021080D01*
X1018540Y276860D01*
X1016000Y274320D01*
X1013460D01*
X1016000Y271780D01*
X1013460Y269240D01*
X1016000D01*
X1018540Y266700D01*
X1007110Y431800D02*
Y441960D01*
X1017270D01*
Y431800D01*
X1007110D01*
Y406400D02*
Y416560D01*
X1017270D01*
Y406400D01*
X1007110D01*
Y381000D02*
Y391160D01*
X1017270D01*
Y381000D01*
X1007110D01*
Y355600D02*
Y365760D01*
X1017270D01*
Y355600D01*
X1007110D01*
Y330200D02*
Y340360D01*
X1017270D01*
Y330200D01*
X1007110D01*
Y304800D02*
Y314960D01*
X1017270D01*
Y304800D01*
X1007110D01*
X701040Y546100D02*
X703580Y548640D01*
X706120D01*
X703580Y551180D01*
X706120Y553720D01*
X703580D01*
X701040Y556260D01*
X698500Y553720D01*
X695960D01*
X698500Y551180D01*
X695960Y548640D01*
X698500D01*
X701040Y546100D01*
X753110Y284480D02*
X755650Y287020D01*
X758190D01*
X755650Y289560D01*
X758190Y292100D01*
X755650D01*
X753110Y294640D01*
X750570Y292100D01*
X748030D01*
X750570Y289560D01*
X748030Y287020D01*
X750570D01*
X753110Y284480D01*
X720090Y339090D02*
X715010Y349250D01*
X725170D01*
X720090Y339090D01*
X672090Y311090D02*
X667010Y321250D01*
X677170D01*
X672090Y311090D01*
Y369090D02*
X667010Y379250D01*
X677170D01*
X672090Y369090D01*
X735330Y412750D02*
Y410210D01*
X740410D01*
Y412750D01*
X742950D01*
Y417830D01*
X740410D01*
Y420370D01*
X735330D01*
Y417830D01*
X732790D01*
Y412750D01*
X735330D01*
X645160Y411480D02*
Y408940D01*
X650240D01*
Y411480D01*
X652780D01*
Y416560D01*
X650240D01*
Y419100D01*
X645160D01*
Y416560D01*
X642620D01*
Y411480D01*
X645160D01*
X957954Y405991D02*
Y403451D01*
X963034D01*
Y405991D01*
X965574D01*
Y411071D01*
X963034D01*
Y413611D01*
X957954D01*
Y411071D01*
X955414D01*
Y405991D01*
X957954D01*
X949960Y444500D02*
Y441960D01*
X955040D01*
Y444500D01*
X957580D01*
Y449580D01*
X955040D01*
Y452120D01*
X949960D01*
Y449580D01*
X947420D01*
Y444500D01*
X949960D01*
X660400Y411480D02*
Y408940D01*
X665480D01*
Y411480D01*
X668020D01*
Y416560D01*
X665480D01*
Y419100D01*
X660400D01*
Y416560D01*
X657860D01*
Y411480D01*
X660400D01*
X955040Y381000D02*
X957580D01*
X960120Y383540D01*
X962660Y381000D01*
X965200D01*
Y383540D01*
X962660Y386080D01*
X965200Y388620D01*
Y391160D01*
X962660D01*
X960120Y388620D01*
X957580Y391160D01*
X955040D01*
Y388620D01*
X957580Y386080D01*
X955040Y383540D01*
Y381000D01*
X664210Y472440D02*
Y469900D01*
X669290D01*
Y472440D01*
X671830D01*
Y477520D01*
X669290D01*
Y480060D01*
X664210D01*
Y477520D01*
X661670D01*
Y472440D01*
X664210D01*
X829310Y347980D02*
X831850D01*
X834390Y350520D01*
X836930Y347980D01*
X839470D01*
Y350520D01*
X836930Y353060D01*
X839470Y355600D01*
Y358140D01*
X836930D01*
X834390Y355600D01*
X831850Y358140D01*
X829310D01*
Y355600D01*
X831850Y353060D01*
X829310Y350520D01*
Y347980D01*
Y365760D02*
X831850D01*
X834390Y368300D01*
X836930Y365760D01*
X839470D01*
Y368300D01*
X836930Y370840D01*
X839470Y373380D01*
Y375920D01*
X836930D01*
X834390Y373380D01*
X831850Y375920D01*
X829310D01*
Y373380D01*
X831850Y370840D01*
X829310Y368300D01*
Y365760D01*
X772160Y372110D02*
Y369570D01*
X777240D01*
Y372110D01*
X779780D01*
Y377190D01*
X777240D01*
Y379730D01*
X772160D01*
Y377190D01*
X769620D01*
Y372110D01*
X772160D01*
X916940Y370840D02*
Y368300D01*
X922020D01*
Y370840D01*
X924560D01*
Y375920D01*
X922020D01*
Y378460D01*
X916940D01*
Y375920D01*
X914400D01*
Y370840D01*
X916940D01*
D53*
X623570Y586740D02*
G03*
X623570Y586740I-5080J0D01*
G01*
Y561340D02*
G03*
X623570Y561340I-5080J0D01*
G01*
Y535940D02*
G03*
X623570Y535940I-5080J0D01*
G01*
Y510540D02*
G03*
X623570Y510540I-5080J0D01*
G01*
Y485140D02*
G03*
X623570Y485140I-5080J0D01*
G01*
Y459740D02*
G03*
X623570Y459740I-5080J0D01*
G01*
Y434340D02*
G03*
X623570Y434340I-5080J0D01*
G01*
Y408940D02*
G03*
X623570Y408940I-5080J0D01*
G01*
M02*
