M48
;Layer_Color=9474304
;FILE_FORMAT=4:4
METRIC,LZ
;TYPE=PLATED
T1F00S00C0.5080
T2F00S00C0.7620
T3F00S00C1.1000
T4F00S00C1.1500
T5F00S00C3.0000
T6F00S00C3.2000
%
T01
X0083439Y0035306
Y0037084
X0096012Y0038608
T02
X007747Y0037465
X0091948Y0037338
X00960494Y00408531
X009525Y0044704
X0073787Y0041529
X0066294Y0041402
X006477
X0066675Y0047498
T03
X0061849Y0040894
Y0043434
Y0045974
Y0048514
Y0051054
Y0053594
Y0056134
Y0058674
T04
X0101219Y0030988
Y0033528
Y0036068
Y0038608
Y0041148
Y0043688
T05
X0075311Y0028956
X0101854Y0027178
X0070104Y0055118
T06
X0067209Y0031617
Y0037417
X0072009Y0034417
M30
