G04*
G04 #@! TF.GenerationSoftware,Altium Limited,Altium Designer,23.4.1 (23)*
G04*
G04 Layer_Color=16711935*
%FSLAX44Y44*%
%MOMM*%
G71*
G04*
G04 #@! TF.SameCoordinates,5B4701A4-F384-41A6-9C88-78B9FC1DD21D*
G04*
G04*
G04 #@! TF.FilePolarity,Negative*
G04*
G01*
G75*
%ADD31C,4.6500*%
%ADD32R,1.8750X1.8750*%
%ADD33C,1.8750*%
%ADD34C,4.9500*%
%ADD35C,1.6740*%
%ADD36R,1.8000X1.8000*%
%ADD37C,1.8000*%
%ADD38C,1.6232*%
%ADD39C,1.3692*%
D31*
X1018540Y271780D02*
D03*
X701040Y551180D02*
D03*
X753110Y289560D02*
D03*
D32*
X1012190Y436880D02*
D03*
D33*
Y411480D02*
D03*
Y386080D02*
D03*
Y360680D02*
D03*
Y335280D02*
D03*
Y309880D02*
D03*
D34*
X720090Y344170D02*
D03*
X672090Y316170D02*
D03*
Y374170D02*
D03*
D35*
X737870Y415290D02*
D03*
D36*
X618490Y586740D02*
D03*
D37*
Y561340D02*
D03*
Y535940D02*
D03*
Y510540D02*
D03*
Y485140D02*
D03*
Y459740D02*
D03*
Y434340D02*
D03*
Y408940D02*
D03*
D38*
X647700Y414020D02*
D03*
X960494Y408531D02*
D03*
X952500Y447040D02*
D03*
X662940Y414020D02*
D03*
X666750Y474980D02*
D03*
X774700Y374650D02*
D03*
X919480Y373380D02*
D03*
D39*
X960120Y386080D02*
D03*
X834390Y353060D02*
D03*
Y370840D02*
D03*
M02*
