G04*
G04 #@! TF.GenerationSoftware,Altium Limited,Altium Designer,23.4.1 (23)*
G04*
G04 Layer_Color=32768*
%FSLAX44Y44*%
%MOMM*%
G71*
G04*
G04 #@! TF.SameCoordinates,5B4701A4-F384-41A6-9C88-78B9FC1DD21D*
G04*
G04*
G04 #@! TF.FilePolarity,Positive*
G04*
G01*
G75*
%ADD10C,0.1000*%
%ADD11C,0.2000*%
%ADD51C,0.0500*%
D10*
X784130Y535750D02*
X994130D01*
Y255750D02*
Y535750D01*
X784130Y255750D02*
X994130D01*
X784130D02*
Y535750D01*
X769700Y410210D02*
X779700D01*
X774700Y405210D02*
Y415210D01*
D11*
X639602Y433386D02*
X706652D01*
Y511329D01*
X639602D02*
X706652D01*
X639602Y433386D02*
Y511329D01*
X714119Y423659D02*
X733681D01*
Y457721D01*
X714119D02*
X733681D01*
X714119Y423659D02*
Y457721D01*
X703070Y403520D02*
Y424520D01*
X671070D02*
X703070D01*
X671070Y403520D02*
Y424520D01*
Y403520D02*
X703070D01*
X761660Y424690D02*
X782660D01*
Y456690D01*
X761660D02*
X782660D01*
X761660Y424690D02*
Y456690D01*
X739780Y428429D02*
X756280D01*
Y455491D01*
X739780D02*
X756280D01*
X739780Y428429D02*
Y455491D01*
D51*
X997240Y452080D02*
X1027140D01*
Y294680D02*
Y452080D01*
X997240Y294680D02*
X1027140D01*
X997240D02*
Y452080D01*
X633390Y393740D02*
Y601940D01*
X603590Y393740D02*
X633390D01*
X603590D02*
Y601940D01*
X633390D01*
X746150Y390670D02*
Y424670D01*
X765150D01*
Y390670D02*
Y424670D01*
X746150Y390670D02*
X765150D01*
X783200Y396710D02*
Y423710D01*
X766200Y396710D02*
Y423710D01*
X783200D01*
X766200Y396710D02*
X783200D01*
M02*
