G04*
G04 #@! TF.GenerationSoftware,Altium Limited,Altium Designer,23.4.1 (23)*
G04*
G04 Layer_Color=32768*
%FSLAX44Y44*%
%MOMM*%
G71*
G04*
G04 #@! TF.SameCoordinates,A0B98803-91D0-4B0B-9526-B44C3162FC5B*
G04*
G04*
G04 #@! TF.FilePolarity,Positive*
G04*
G01*
G75*
%ADD48C,0.1000*%
%ADD49C,0.0500*%
D48*
X1109570Y465210D02*
Y745210D01*
X899570D02*
X1109570D01*
X899570Y465210D02*
Y745210D01*
Y465210D02*
X1109570D01*
X994490Y775970D02*
X1004490D01*
X999490Y770970D02*
Y780970D01*
X1112600Y591820D02*
X1122600D01*
X1117600Y586820D02*
Y596820D01*
D49*
X754550Y621070D02*
X800650D01*
Y561370D02*
Y621070D01*
X754550Y689570D02*
X800650D01*
Y749270D01*
X1234950Y561370D02*
Y621070D01*
X1281050D01*
X1234950Y689570D02*
Y749270D01*
Y689570D02*
X1281050D01*
X800650Y749270D02*
X1234950D01*
X754550Y621070D02*
Y689570D01*
X800650Y561370D02*
X1234950D01*
X1281050Y621070D02*
Y689570D01*
X1055410Y780870D02*
X1212810D01*
X1055410Y750970D02*
Y780870D01*
Y750970D02*
X1212810D01*
Y780870D01*
X968990Y799470D02*
X1029990D01*
X968990Y752470D02*
Y799470D01*
X1029990Y752470D02*
Y799470D01*
X968990Y752470D02*
X1029990D01*
X1109100Y578320D02*
Y605320D01*
X1126100Y578320D02*
Y605320D01*
X1109100Y578320D02*
X1126100D01*
X1109100Y605320D02*
X1126100D01*
X1146150Y576090D02*
Y610090D01*
X1127150Y576090D02*
X1146150D01*
X1127150D02*
Y610090D01*
X1146150D01*
M02*
