G04*
G04 #@! TF.GenerationSoftware,Altium Limited,Altium Designer,23.4.1 (23)*
G04*
G04 Layer_Color=128*
%FSLAX44Y44*%
%MOMM*%
G71*
G04*
G04 #@! TF.SameCoordinates,A0B98803-91D0-4B0B-9526-B44C3162FC5B*
G04*
G04*
G04 #@! TF.FilePolarity,Positive*
G04*
G01*
G75*
%ADD47C,0.1270*%
D47*
X1195250Y736320D02*
X1215050D01*
X1205150Y726420D02*
Y746220D01*
X1249920Y492760D02*
X1279920D01*
X1264920Y477760D02*
Y507760D01*
X757160Y789940D02*
X787160D01*
X772160Y774940D02*
Y804940D01*
X757160Y492760D02*
X787160D01*
X772160Y477760D02*
Y507760D01*
X1249920Y789940D02*
X1279920D01*
X1264920Y774940D02*
Y804940D01*
X1064860Y765920D02*
X1076360D01*
X1070610Y760170D02*
Y771670D01*
X1090260Y765920D02*
X1101760D01*
X1096010Y760170D02*
Y771670D01*
X1115660Y765920D02*
X1127160D01*
X1121410Y760170D02*
Y771670D01*
X1141060Y765920D02*
X1152560D01*
X1146810Y760170D02*
Y771670D01*
X1166460Y765920D02*
X1177960D01*
X1172210Y760170D02*
Y771670D01*
X1191860Y765920D02*
X1203360D01*
X1197610Y760170D02*
Y771670D01*
X984490Y781470D02*
X994490D01*
X989490Y776470D02*
Y786470D01*
X1004490Y781470D02*
X1014490D01*
X1009490Y776470D02*
Y786470D01*
X932960Y782470D02*
X939960D01*
X936460Y778970D02*
Y785970D01*
X912960Y782470D02*
X919960D01*
X916460Y778970D02*
Y785970D01*
X892960Y782470D02*
X899960D01*
X896460Y778970D02*
Y785970D01*
X872960Y782470D02*
X879960D01*
X876460Y778970D02*
Y785970D01*
X852960Y782470D02*
X859960D01*
X856460Y778970D02*
Y785970D01*
X832960Y782470D02*
X839960D01*
X836460Y778970D02*
Y785970D01*
X998220Y595630D02*
X1003300D01*
X1000760Y593090D02*
Y598170D01*
X967740Y601980D02*
X972820D01*
X970280Y599440D02*
Y604520D01*
X1183640Y567690D02*
X1191260D01*
X1187450Y563880D02*
Y571500D01*
X1183640Y601980D02*
X1191260D01*
X1187450Y598170D02*
Y605790D01*
X894080Y709930D02*
X899160D01*
X896620Y707390D02*
Y712470D01*
X1113790Y615950D02*
X1121410D01*
X1117600Y612140D02*
Y619760D01*
X935990Y549910D02*
X943610D01*
X939800Y546100D02*
Y553720D01*
X1016000Y577850D02*
X1023620D01*
X1019810Y574040D02*
Y581660D01*
X1160780Y551180D02*
X1168400D01*
X1164590Y547370D02*
Y554990D01*
X853440Y702310D02*
X858520D01*
X855980Y699770D02*
Y704850D01*
X939800Y701040D02*
X944880D01*
X942340Y698500D02*
Y703580D01*
M02*
