G04*
G04 #@! TF.GenerationSoftware,Altium Limited,Altium Designer,23.4.1 (23)*
G04*
G04 Layer_Color=16711935*
%FSLAX44Y44*%
%MOMM*%
G71*
G04*
G04 #@! TF.SameCoordinates,A0B98803-91D0-4B0B-9526-B44C3162FC5B*
G04*
G04*
G04 #@! TF.FilePolarity,Positive*
G04*
G01*
G75*
%ADD47C,0.1270*%
%ADD48C,0.1000*%
D47*
X757300Y614920D02*
X767300D01*
X1273300Y607420D02*
Y617420D01*
X1268300Y612420D02*
X1278300D01*
X1232450Y563870D02*
Y746770D01*
X803150Y563870D02*
X1232450D01*
X803150D02*
Y746770D01*
X1232450D01*
D48*
X1094570Y475210D02*
Y730210D01*
X914570Y475210D02*
X1094570D01*
X914570D02*
Y730210D01*
X1094570D01*
X1057910Y778370D02*
X1210310D01*
X1057910Y753470D02*
Y778370D01*
Y753470D02*
X1210310D01*
Y778370D01*
X969990Y798470D02*
X1028990D01*
X969990Y753470D02*
Y798470D01*
X1028990Y753470D02*
Y798470D01*
X969990Y753470D02*
X1028990D01*
X1110350Y580820D02*
Y602820D01*
X1124850Y580820D02*
Y602820D01*
X1110350Y580820D02*
X1124850D01*
X1110350Y602820D02*
X1124850D01*
X1142900Y583090D02*
Y603090D01*
X1130400Y583090D02*
X1142900D01*
X1130400D02*
Y603090D01*
X1142900D01*
M02*
