G04*
G04 #@! TF.GenerationSoftware,Altium Limited,Altium Designer,23.4.1 (23)*
G04*
G04 Layer_Color=255*
%FSLAX44Y44*%
%MOMM*%
G71*
G04*
G04 #@! TF.SameCoordinates,A0B98803-91D0-4B0B-9526-B44C3162FC5B*
G04*
G04*
G04 #@! TF.FilePolarity,Positive*
G04*
G01*
G75*
%ADD13R,0.9000X0.9000*%
%ADD14R,1.5000X0.9000*%
%ADD15R,0.9000X1.5000*%
%ADD16R,1.3500X1.1000*%
%ADD17R,1.4000X1.0000*%
%ADD18R,1.4000X0.9500*%
%ADD19R,1.3562X1.0546*%
%ADD31C,1.2000*%
%ADD32R,1.2000X1.2000*%
%ADD37C,1.9800*%
%ADD38C,4.5000*%
%ADD39C,1.7250*%
%ADD40R,1.7250X1.7250*%
%ADD41R,1.5000X1.5000*%
%ADD42C,1.5000*%
D13*
X1005570Y613310D02*
D03*
Y627310D02*
D03*
Y641310D02*
D03*
X1019570D02*
D03*
X1033570D02*
D03*
Y627310D02*
D03*
Y613310D02*
D03*
X1019570D02*
D03*
Y627310D02*
D03*
D14*
X917070Y550110D02*
D03*
Y562810D02*
D03*
Y575510D02*
D03*
Y588210D02*
D03*
Y600910D02*
D03*
Y613610D02*
D03*
Y626310D02*
D03*
Y639010D02*
D03*
Y651710D02*
D03*
Y664410D02*
D03*
Y677110D02*
D03*
Y689810D02*
D03*
Y702510D02*
D03*
Y715210D02*
D03*
X1092070D02*
D03*
Y702510D02*
D03*
Y689810D02*
D03*
Y677110D02*
D03*
Y664410D02*
D03*
Y651710D02*
D03*
Y639010D02*
D03*
Y626310D02*
D03*
Y613610D02*
D03*
Y600910D02*
D03*
Y588210D02*
D03*
Y575510D02*
D03*
Y562810D02*
D03*
Y550110D02*
D03*
D15*
X934720Y727710D02*
D03*
X947420D02*
D03*
X960120D02*
D03*
X972820D02*
D03*
X985520D02*
D03*
X998220D02*
D03*
X1010920D02*
D03*
X1023620D02*
D03*
X1036320D02*
D03*
X1049020D02*
D03*
X1061720D02*
D03*
X1074420D02*
D03*
D16*
X1117600Y584820D02*
D03*
Y598820D02*
D03*
D17*
X1136650Y602590D02*
D03*
Y583590D02*
D03*
D18*
X1120140Y550820D02*
D03*
Y569320D02*
D03*
D19*
X1144270Y551542D02*
D03*
Y566058D02*
D03*
D31*
X936460Y782470D02*
D03*
X916460D02*
D03*
X896460D02*
D03*
X876460D02*
D03*
X856460D02*
D03*
D32*
X836460D02*
D03*
D37*
X1205150Y736320D02*
D03*
D38*
X1264920Y492760D02*
D03*
X772160Y789940D02*
D03*
Y492760D02*
D03*
X1264920Y789940D02*
D03*
D39*
X1070610Y765920D02*
D03*
X1096010D02*
D03*
X1121410D02*
D03*
X1146810D02*
D03*
X1172210D02*
D03*
D40*
X1197610D02*
D03*
D41*
X989490Y781470D02*
D03*
D42*
X1009490D02*
D03*
M02*
