G04*
G04 #@! TF.GenerationSoftware,Altium Limited,Altium Designer,23.4.1 (23)*
G04*
G04 Layer_Physical_Order=2*
G04 Layer_Color=16711680*
%FSLAX44Y44*%
%MOMM*%
G71*
G04*
G04 #@! TF.SameCoordinates,A0B98803-91D0-4B0B-9526-B44C3162FC5B*
G04*
G04*
G04 #@! TF.FilePolarity,Positive*
G04*
G01*
G75*
%ADD31C,1.2000*%
%ADD32R,1.2000X1.2000*%
%ADD35C,0.2540*%
%ADD37C,1.9800*%
%ADD38C,4.5000*%
%ADD39C,1.7250*%
%ADD40R,1.7250X1.7250*%
%ADD41R,1.5000X1.5000*%
%ADD42C,1.5000*%
%ADD43C,1.2192*%
%ADD44C,1.4732*%
%ADD45R,7.3400X6.3500*%
G36*
X1074420Y814070D02*
X1080770Y807720D01*
Y759460D01*
X1076960Y755650D01*
X1060450D01*
X1057910Y758190D01*
Y792480D01*
X1055370Y795020D01*
X927100D01*
X924560Y792480D01*
Y772160D01*
X922020Y769620D01*
X909321Y769620D01*
X906780Y772160D01*
X906780Y788670D01*
X902970Y792480D01*
X816610D01*
X811530Y787400D01*
X811530Y684530D01*
X831850D01*
X930910Y585470D01*
X1065530D01*
X1079500Y599440D01*
Y615950D01*
X1094740Y631190D01*
X1159510Y631190D01*
X1173480Y617220D01*
Y547370D01*
X1167130Y541020D01*
X839470D01*
X759460Y621030D01*
Y680720D01*
X756920D01*
Y795020D01*
X775970Y814070D01*
X1074420Y814070D01*
D02*
G37*
G36*
X1263650Y745982D02*
X1263650Y678180D01*
X1219669Y678180D01*
X1278890Y628650D01*
Y585470D01*
X1229360Y535940D01*
X1188720D01*
X1179830Y544830D01*
Y678180D01*
Y687070D01*
X1220470Y731184D01*
Y766224D01*
X1209040Y784860D01*
X1108710D01*
Y762000D01*
Y758190D01*
X1090930Y740410D01*
X932180Y740410D01*
X928370Y744220D01*
Y787400D01*
X932180Y791210D01*
X941070Y791210D01*
X946150Y786130D01*
Y755650D01*
X949960Y751840D01*
X1079500D01*
X1085850Y758190D01*
X1085850Y796290D01*
X1092200Y802640D01*
X1224619D01*
X1263650Y745982D01*
D02*
G37*
D31*
X936460Y782470D02*
D03*
X916460D02*
D03*
X896460D02*
D03*
X876460D02*
D03*
X856460D02*
D03*
D32*
X836460D02*
D03*
D35*
X1000760Y595630D02*
X1001340D01*
X1171630Y765920D01*
X1172210D01*
X970857Y602557D02*
X982867D01*
X970280Y601980D02*
X970857Y602557D01*
X982867D02*
X1146187Y765877D01*
Y765877D01*
X896460Y782470D02*
X896540Y782390D01*
Y710010D02*
X896620Y709930D01*
X896540Y710010D02*
Y782390D01*
X855980Y702310D02*
X856220Y702550D01*
Y782230D01*
X856460Y782470D01*
X1056530Y701040D02*
X1121410Y765920D01*
X942340Y701040D02*
X1056530D01*
D37*
X1205150Y736320D02*
D03*
D38*
X1264920Y492760D02*
D03*
X772160Y789940D02*
D03*
Y492760D02*
D03*
X1264920Y789940D02*
D03*
D39*
X1070610Y765920D02*
D03*
X1096010D02*
D03*
X1121410D02*
D03*
X1146810D02*
D03*
X1172210D02*
D03*
D40*
X1197610D02*
D03*
D41*
X989490Y781470D02*
D03*
D42*
X1009490D02*
D03*
D43*
X1000760Y595630D02*
D03*
X970280Y601980D02*
D03*
X896620Y709930D02*
D03*
X855980Y702310D02*
D03*
X942340Y701040D02*
D03*
D44*
X1187450Y567690D02*
D03*
Y601980D02*
D03*
X1117600Y615950D02*
D03*
X939800Y549910D02*
D03*
X1019810Y577850D02*
D03*
X1164590Y551180D02*
D03*
D45*
X793750Y655320D02*
D03*
X1241850D02*
D03*
M02*
