G04*
G04 #@! TF.GenerationSoftware,Altium Limited,Altium Designer,23.4.1 (23)*
G04*
G04 Layer_Physical_Order=1*
G04 Layer_Color=255*
%FSLAX44Y44*%
%MOMM*%
G71*
G04*
G04 #@! TF.SameCoordinates,A0B98803-91D0-4B0B-9526-B44C3162FC5B*
G04*
G04*
G04 #@! TF.FilePolarity,Positive*
G04*
G01*
G75*
%ADD13R,0.9000X0.9000*%
%ADD14R,1.5000X0.9000*%
%ADD15R,0.9000X1.5000*%
%ADD16R,1.3500X1.1000*%
%ADD17R,1.4000X1.0000*%
%ADD18R,1.4000X0.9500*%
%ADD19R,1.3562X1.0546*%
%ADD31C,1.2000*%
%ADD32R,1.2000X1.2000*%
%ADD35C,0.2540*%
%ADD36C,0.5080*%
%ADD37C,1.9800*%
%ADD38C,4.5000*%
%ADD39C,1.7250*%
%ADD40R,1.7250X1.7250*%
%ADD41R,1.5000X1.5000*%
%ADD42C,1.5000*%
%ADD43C,1.2192*%
%ADD44C,1.4732*%
D13*
X1005570Y613310D02*
D03*
Y627310D02*
D03*
Y641310D02*
D03*
X1019570D02*
D03*
X1033570D02*
D03*
Y627310D02*
D03*
Y613310D02*
D03*
X1019570D02*
D03*
Y627310D02*
D03*
D14*
X917070Y550110D02*
D03*
Y562810D02*
D03*
Y575510D02*
D03*
Y588210D02*
D03*
Y600910D02*
D03*
Y613610D02*
D03*
Y626310D02*
D03*
Y639010D02*
D03*
Y651710D02*
D03*
Y664410D02*
D03*
Y677110D02*
D03*
Y689810D02*
D03*
Y702510D02*
D03*
Y715210D02*
D03*
X1092070D02*
D03*
Y702510D02*
D03*
Y689810D02*
D03*
Y677110D02*
D03*
Y664410D02*
D03*
Y651710D02*
D03*
Y639010D02*
D03*
Y626310D02*
D03*
Y613610D02*
D03*
Y600910D02*
D03*
Y588210D02*
D03*
Y575510D02*
D03*
Y562810D02*
D03*
Y550110D02*
D03*
D15*
X934720Y727710D02*
D03*
X947420D02*
D03*
X960120D02*
D03*
X972820D02*
D03*
X985520D02*
D03*
X998220D02*
D03*
X1010920D02*
D03*
X1023620D02*
D03*
X1036320D02*
D03*
X1049020D02*
D03*
X1061720D02*
D03*
X1074420D02*
D03*
D16*
X1117600Y584820D02*
D03*
Y598820D02*
D03*
D17*
X1136650Y602590D02*
D03*
Y583590D02*
D03*
D18*
X1120140Y550820D02*
D03*
Y569320D02*
D03*
D19*
X1144270Y551542D02*
D03*
Y566058D02*
D03*
D31*
X936460Y782470D02*
D03*
X916460D02*
D03*
X896460D02*
D03*
X876460D02*
D03*
X856460D02*
D03*
D32*
X836460D02*
D03*
D35*
X1046740Y744220D02*
X1085850D01*
X1104900Y699640D02*
Y725170D01*
X1085850Y744220D02*
X1104900Y725170D01*
X1009490Y781470D02*
X1046740Y744220D01*
X1095070Y689810D02*
X1104900Y699640D01*
X1092070Y575510D02*
X1096210D01*
X1106170Y585470D02*
Y674480D01*
X1096210Y575510D02*
Y576650D01*
X1098300Y578740D02*
X1099440D01*
X1096210Y576650D02*
X1098300Y578740D01*
X1099440D02*
X1106170Y585470D01*
Y674480D02*
X1197610Y765920D01*
X917070Y588210D02*
X993340D01*
X1000760Y595630D01*
X1000760D01*
X918140Y601980D02*
X970280D01*
X917070Y600910D02*
X918140Y601980D01*
X896620Y709930D02*
X897636Y708914D01*
X876460Y742303D02*
Y782470D01*
X905256Y711324D02*
X914070Y702510D01*
X897636Y700024D02*
Y708914D01*
X905256Y711324D02*
Y713507D01*
X897636Y700024D02*
X907850Y689810D01*
X876460Y742303D02*
X905256Y713507D01*
X836460Y754720D02*
X914070Y677110D01*
X836460Y754720D02*
Y782470D01*
X855980Y655320D02*
Y702310D01*
Y655320D02*
X884990Y626310D01*
X907850Y689810D02*
X917070D01*
X884990Y626310D02*
X917070D01*
X914070Y702510D02*
X917070D01*
X914070Y677110D02*
X917070D01*
X934720Y708660D02*
X942340Y701040D01*
X934720Y708660D02*
Y727710D01*
X1049020D02*
Y730710D01*
X1025140Y754590D02*
X1049020Y730710D01*
X1016370Y754590D02*
X1025140D01*
X989490Y781470D02*
X1016370Y754590D01*
X1092070Y689810D02*
X1095070D01*
D36*
X1122390Y569320D02*
X1124020Y567690D01*
X1142638D02*
X1144270Y566058D01*
X1120140Y569320D02*
X1121770Y567690D01*
X1142638D01*
X1145086Y566874D02*
X1186634D01*
X1187450Y567690D01*
X1136650Y602590D02*
X1136955Y602285D01*
X1187145D01*
X1187450Y601980D01*
X1144270Y566058D02*
X1145086Y566874D01*
X1117600Y598820D02*
Y615950D01*
X1095070Y575510D02*
X1107190D01*
X1116350Y584820D02*
X1117600D01*
X1110166Y578636D02*
X1116350Y584820D01*
X1110166Y578486D02*
Y578636D01*
X1107190Y575510D02*
X1110166Y578486D01*
X1136035Y584205D02*
X1136650Y583590D01*
X1118215Y584205D02*
X1136035D01*
X1117600Y584820D02*
X1118215Y584205D01*
X1117890Y569320D02*
X1120140D01*
X1111380Y562810D02*
X1117890Y569320D01*
X1092070Y562810D02*
X1111380D01*
X917070Y550110D02*
X917170Y550010D01*
X939700D01*
X939800Y549910D01*
X1005570Y627310D02*
X1019570D01*
X1005570Y613310D02*
Y627310D01*
Y613310D02*
X1019570D01*
X1033570D01*
X1019570Y599790D02*
Y613310D01*
Y599790D02*
X1019810Y599550D01*
X1019570Y641310D02*
X1033570D01*
X1005570D02*
X1019570D01*
X1033570Y627310D02*
Y641310D01*
Y613310D02*
Y627310D01*
X1019810Y577850D02*
Y599550D01*
X1119785Y550465D02*
X1120140Y550820D01*
X1092425Y550465D02*
X1119785D01*
X1092070Y550110D02*
X1092425Y550465D01*
X1143909Y551181D02*
X1144270Y551542D01*
X1120501Y551181D02*
X1143909D01*
X1120140Y550820D02*
X1120501Y551181D01*
X1144270Y551542D02*
X1144451Y551361D01*
X1164409D01*
X1164590Y551180D01*
D37*
X1205150Y736320D02*
D03*
D38*
X1264920Y492760D02*
D03*
X772160Y789940D02*
D03*
Y492760D02*
D03*
X1264920Y789940D02*
D03*
D39*
X1070610Y765920D02*
D03*
X1096010D02*
D03*
X1121410D02*
D03*
X1146810D02*
D03*
X1172210D02*
D03*
D40*
X1197610D02*
D03*
D41*
X989490Y781470D02*
D03*
D42*
X1009490D02*
D03*
D43*
X1000760Y595630D02*
D03*
X970280Y601980D02*
D03*
X896620Y709930D02*
D03*
X855980Y702310D02*
D03*
X942340Y701040D02*
D03*
D44*
X1187450Y567690D02*
D03*
Y601980D02*
D03*
X1117600Y615950D02*
D03*
X939800Y549910D02*
D03*
X1019810Y577850D02*
D03*
X1164590Y551180D02*
D03*
M02*
