M48
;Layer_Color=9474304
;FILE_FORMAT=4:4
METRIC,LZ
;TYPE=PLATED
T1F00S00C0.5080
T2F00S00C0.7000
T3F00S00C0.7620
T4F00S00C1.0000
T5F00S00C1.1500
T6F00S00C3.0000
;TYPE=NON_PLATED
T7F00S00C1.9800
%
T01
X0085598Y0070231
X0089662Y0070993
X0094234Y0070104
X0097028Y0060198
X0100076Y0059563
T02
X0083646Y0078247
X0085646
X0087646
X0089646
X0091646
X0093646
T03
X009398Y0054991
X0101981Y0057785
X011176Y0061595
X0118745Y0060198
Y0056769
X0116459Y0055118
T04
X0098949Y0078147
X0100949
T05
X0119761Y0076592
X0117221
X0114681
X0112141
X0109601
X0107061
T06
X0126492Y0049276
Y0078994
X0077216
Y0049276
T07
X0120515Y0073632
M30
