G04*
G04 #@! TF.GenerationSoftware,Altium Limited,Altium Designer,23.4.1 (23)*
G04*
G04 Layer_Color=32896*
%FSLAX44Y44*%
%MOMM*%
G71*
G04*
G04 #@! TF.SameCoordinates,5B4701A4-F384-41A6-9C88-78B9FC1DD21D*
G04*
G04*
G04 #@! TF.FilePolarity,Positive*
G04*
G01*
G75*
%ADD13C,0.2032*%
D13*
X651597Y564216D02*
X653290Y565909D01*
X656675D01*
X658368Y564216D01*
Y557445D01*
X656675Y555752D01*
X653290D01*
X651597Y557445D01*
Y560830D01*
X654982D01*
X648211Y555752D02*
Y565909D01*
X641440Y555752D01*
Y565909D01*
X638055D02*
Y555752D01*
X632976D01*
X631283Y557445D01*
Y564216D01*
X632976Y565909D01*
X638055D01*
X994918Y315719D02*
X991532D01*
X993225D01*
Y305562D01*
X994918D01*
X991532D01*
X981376Y315719D02*
X984761D01*
X986454Y314026D01*
Y307255D01*
X984761Y305562D01*
X981376D01*
X979683Y307255D01*
Y314026D01*
X981376Y315719D01*
X976297Y314026D02*
X974605Y315719D01*
X971219D01*
X969526Y314026D01*
Y307255D01*
X971219Y305562D01*
X974605D01*
X976297Y307255D01*
Y314026D01*
X993648Y330962D02*
Y341119D01*
X988570D01*
X986877Y339426D01*
Y336040D01*
X988570Y334348D01*
X993648D01*
X990262D02*
X986877Y330962D01*
X983491Y341119D02*
X976720Y330962D01*
Y341119D02*
X983491Y330962D01*
X993648Y365249D02*
X986877D01*
X990262D01*
Y355092D01*
X983491Y365249D02*
X976720Y355092D01*
Y365249D02*
X983491Y355092D01*
X986877Y390649D02*
X993648D01*
Y380492D01*
X986877D01*
X993648Y385570D02*
X990262D01*
X983491Y380492D02*
Y390649D01*
X976720Y380492D01*
Y390649D01*
X986877Y438486D02*
X988570Y440179D01*
X991955D01*
X993648Y438486D01*
Y431715D01*
X991955Y430022D01*
X988570D01*
X986877Y431715D01*
Y435100D01*
X990262D01*
X983491Y430022D02*
Y440179D01*
X976720Y430022D01*
Y440179D01*
X973335D02*
Y430022D01*
X968256D01*
X966563Y431715D01*
Y438486D01*
X968256Y440179D01*
X973335D01*
X679537Y512146D02*
X681230Y513839D01*
X684615D01*
X686308Y512146D01*
Y510453D01*
X684615Y508760D01*
X681230D01*
X679537Y507068D01*
Y505375D01*
X681230Y503682D01*
X684615D01*
X686308Y505375D01*
X676151Y513839D02*
X672766D01*
X674458D01*
Y503682D01*
X676151D01*
X672766D01*
X667687D02*
Y513839D01*
X664302Y510453D01*
X660916Y513839D01*
Y503682D01*
X647374Y513839D02*
X640603D01*
X643988D01*
Y503682D01*
X637217Y513839D02*
X630446Y503682D01*
Y513839D02*
X637217Y503682D01*
X658368Y537546D02*
X656675Y539239D01*
X653290D01*
X651597Y537546D01*
Y535853D01*
X653290Y534160D01*
X654982D01*
X653290D01*
X651597Y532468D01*
Y530775D01*
X653290Y529082D01*
X656675D01*
X658368Y530775D01*
X648211Y539239D02*
Y532468D01*
X644826Y529082D01*
X641440Y532468D01*
Y539239D01*
X638055Y537546D02*
X636362Y539239D01*
X632976D01*
X631283Y537546D01*
Y535853D01*
X632976Y534160D01*
X634669D01*
X632976D01*
X631283Y532468D01*
Y530775D01*
X632976Y529082D01*
X636362D01*
X638055Y530775D01*
X651597Y462616D02*
X653290Y464309D01*
X656675D01*
X658368Y462616D01*
Y455845D01*
X656675Y454152D01*
X653290D01*
X651597Y455845D01*
Y459230D01*
X654982D01*
X648211Y454152D02*
Y464309D01*
X641440Y454152D01*
Y464309D01*
X638055D02*
Y454152D01*
X632976D01*
X631283Y455845D01*
Y462616D01*
X632976Y464309D01*
X638055D01*
X994918Y414356D02*
X993225Y416049D01*
X989840D01*
X988147Y414356D01*
Y412663D01*
X989840Y410970D01*
X991532D01*
X989840D01*
X988147Y409278D01*
Y407585D01*
X989840Y405892D01*
X993225D01*
X994918Y407585D01*
X984761Y416049D02*
Y409278D01*
X981376Y405892D01*
X977990Y409278D01*
Y416049D01*
X974605Y414356D02*
X972912Y416049D01*
X969526D01*
X967833Y414356D01*
Y412663D01*
X969526Y410970D01*
X971219D01*
X969526D01*
X967833Y409278D01*
Y407585D01*
X969526Y405892D01*
X972912D01*
X974605Y407585D01*
X649057Y588769D02*
X655828D01*
Y583690D01*
X652442Y585383D01*
X650750D01*
X649057Y583690D01*
Y580305D01*
X650750Y578612D01*
X654135D01*
X655828Y580305D01*
X645671Y588769D02*
Y581998D01*
X642286Y578612D01*
X638900Y581998D01*
Y588769D01*
X679537Y486746D02*
X681230Y488439D01*
X684615D01*
X686308Y486746D01*
Y485053D01*
X684615Y483360D01*
X681230D01*
X679537Y481668D01*
Y479975D01*
X681230Y478282D01*
X684615D01*
X686308Y479975D01*
X676151Y488439D02*
X672766D01*
X674458D01*
Y478282D01*
X676151D01*
X672766D01*
X667687D02*
Y488439D01*
X664302Y485053D01*
X660916Y488439D01*
Y478282D01*
X647374D02*
Y488439D01*
X642296D01*
X640603Y486746D01*
Y483360D01*
X642296Y481668D01*
X647374D01*
X643988D02*
X640603Y478282D01*
X637217Y488439D02*
X630446Y478282D01*
Y488439D02*
X637217Y478282D01*
M02*
