G04*
G04 #@! TF.GenerationSoftware,Altium Limited,Altium Designer,23.4.1 (23)*
G04*
G04 Layer_Color=8388736*
%FSLAX44Y44*%
%MOMM*%
G71*
G04*
G04 #@! TF.SameCoordinates,5B4701A4-F384-41A6-9C88-78B9FC1DD21D*
G04*
G04*
G04 #@! TF.FilePolarity,Negative*
G04*
G01*
G75*
G04:AMPARAMS|DCode=17|XSize=1.0043mm|YSize=3.1821mm|CornerRadius=0.4369mm|HoleSize=0mm|Usage=FLASHONLY|Rotation=90.000|XOffset=0mm|YOffset=0mm|HoleType=Round|Shape=RoundedRectangle|*
%AMROUNDEDRECTD17*
21,1,1.0043,2.3084,0,0,90.0*
21,1,0.1306,3.1821,0,0,90.0*
1,1,0.8737,1.1542,0.0653*
1,1,0.8737,1.1542,-0.0653*
1,1,0.8737,-1.1542,-0.0653*
1,1,0.8737,-1.1542,0.0653*
%
%ADD17ROUNDEDRECTD17*%
G04:AMPARAMS|DCode=18|XSize=1.0043mm|YSize=0.8721mm|CornerRadius=0.4361mm|HoleSize=0mm|Usage=FLASHONLY|Rotation=90.000|XOffset=0mm|YOffset=0mm|HoleType=Round|Shape=RoundedRectangle|*
%AMROUNDEDRECTD18*
21,1,1.0043,0.0000,0,0,90.0*
21,1,0.1322,0.8721,0,0,90.0*
1,1,0.8721,0.0000,0.0661*
1,1,0.8721,0.0000,-0.0661*
1,1,0.8721,0.0000,-0.0661*
1,1,0.8721,0.0000,0.0661*
%
%ADD18ROUNDEDRECTD18*%
%ADD19R,0.8721X1.0043*%
%ADD20R,1.4562X1.2546*%
%ADD21R,0.9500X1.4000*%
%ADD22R,1.4000X0.9500*%
%ADD23R,1.3562X1.0546*%
%ADD26R,1.0500X1.6500*%
%ADD27R,1.6500X1.0500*%
%ADD28R,1.0500X1.0500*%
%ADD29R,1.5500X1.1500*%
%ADD30R,1.5000X1.2500*%
%ADD31C,4.6500*%
%ADD32R,1.8750X1.8750*%
%ADD33C,1.8750*%
%ADD34C,4.9500*%
%ADD35C,1.6740*%
%ADD36R,1.8000X1.8000*%
%ADD37C,1.8000*%
%ADD38C,1.6232*%
%ADD39C,1.3692*%
D17*
X673127Y505307D02*
D03*
D18*
X696027Y439407D02*
D03*
X673127D02*
D03*
D19*
X650227D02*
D03*
D20*
X723900Y448948D02*
D03*
Y432432D02*
D03*
D21*
X677820Y414020D02*
D03*
X696320D02*
D03*
D22*
X772160Y449940D02*
D03*
Y431440D02*
D03*
D23*
X748030Y449218D02*
D03*
Y434702D02*
D03*
D26*
X870080Y273250D02*
D03*
X882780D02*
D03*
X895480D02*
D03*
X908180D02*
D03*
X819280D02*
D03*
X831980D02*
D03*
X844680D02*
D03*
X857380D02*
D03*
X920880D02*
D03*
X933580D02*
D03*
X946280D02*
D03*
X958980D02*
D03*
D27*
X801630Y412750D02*
D03*
X976630Y425450D02*
D03*
X801630Y450850D02*
D03*
Y438150D02*
D03*
Y425450D02*
D03*
Y400050D02*
D03*
Y387350D02*
D03*
Y374650D02*
D03*
Y361950D02*
D03*
Y349250D02*
D03*
Y336550D02*
D03*
Y323850D02*
D03*
Y311150D02*
D03*
Y298450D02*
D03*
Y285750D02*
D03*
X976630D02*
D03*
Y298450D02*
D03*
Y311150D02*
D03*
Y323850D02*
D03*
Y336550D02*
D03*
Y349250D02*
D03*
Y361950D02*
D03*
Y374650D02*
D03*
Y387350D02*
D03*
Y400050D02*
D03*
Y412750D02*
D03*
Y438150D02*
D03*
Y450850D02*
D03*
D28*
X874130Y373650D02*
D03*
Y387650D02*
D03*
X860130D02*
D03*
Y373650D02*
D03*
Y359650D02*
D03*
X874130D02*
D03*
X888130D02*
D03*
Y373650D02*
D03*
Y387650D02*
D03*
D29*
X755650Y398170D02*
D03*
Y417170D02*
D03*
D30*
X774700Y417210D02*
D03*
Y403210D02*
D03*
D31*
X1018540Y271780D02*
D03*
X701040Y551180D02*
D03*
X753110Y289560D02*
D03*
D32*
X1012190Y436880D02*
D03*
D33*
Y411480D02*
D03*
Y386080D02*
D03*
Y360680D02*
D03*
Y335280D02*
D03*
Y309880D02*
D03*
D34*
X720090Y344170D02*
D03*
X672090Y316170D02*
D03*
Y374170D02*
D03*
D35*
X737870Y415290D02*
D03*
D36*
X618490Y586740D02*
D03*
D37*
Y561340D02*
D03*
Y535940D02*
D03*
Y510540D02*
D03*
Y485140D02*
D03*
Y459740D02*
D03*
Y434340D02*
D03*
Y408940D02*
D03*
D38*
X647700Y414020D02*
D03*
X960494Y408531D02*
D03*
X952500Y447040D02*
D03*
X662940Y414020D02*
D03*
X666750Y474980D02*
D03*
X774700Y374650D02*
D03*
X919480Y373380D02*
D03*
D39*
X960120Y386080D02*
D03*
X834390Y353060D02*
D03*
Y370840D02*
D03*
M02*
