G04*
G04 #@! TF.GenerationSoftware,Altium Limited,Altium Designer,23.4.1 (23)*
G04*
G04 Layer_Color=16711935*
%FSLAX44Y44*%
%MOMM*%
G71*
G04*
G04 #@! TF.SameCoordinates,5B4701A4-F384-41A6-9C88-78B9FC1DD21D*
G04*
G04*
G04 #@! TF.FilePolarity,Positive*
G04*
G01*
G75*
%ADD10C,0.1000*%
%ADD11C,0.2000*%
D10*
X799130Y525750D02*
X979130D01*
Y270750D02*
Y525750D01*
X799130Y270750D02*
X979130D01*
X799130D02*
Y525750D01*
X999740Y449580D02*
X1024640D01*
Y297180D02*
Y449580D01*
X999740Y297180D02*
X1024640D01*
X999740D02*
Y449580D01*
X630890Y396240D02*
Y599440D01*
X606090Y396240D02*
X630890D01*
X606090D02*
Y599440D01*
X630890D01*
X749400Y397670D02*
Y417670D01*
X761900D01*
Y397670D02*
Y417670D01*
X749400Y397670D02*
X761900D01*
X781950Y399210D02*
Y421210D01*
X767450Y399210D02*
Y421210D01*
X781950D01*
X767450Y399210D02*
X781950D01*
D11*
X620090Y238170D02*
X710090D01*
Y383170D01*
X620090D02*
X710090D01*
X620090Y238170D02*
Y383170D01*
X640602Y454832D02*
X705652D01*
Y489882D01*
X640602D02*
X705652D01*
X640602Y454832D02*
Y489882D01*
X717650Y430690D02*
X730150D01*
Y450690D01*
X717650D02*
X730150D01*
X717650Y430690D02*
Y450690D01*
X698070Y406770D02*
Y421270D01*
X676070D02*
X698070D01*
X676070Y406770D02*
Y421270D01*
Y406770D02*
X698070D01*
X764910Y429690D02*
X779410D01*
Y451690D01*
X764910D02*
X779410D01*
X764910Y429690D02*
Y451690D01*
X741780Y431960D02*
X754280D01*
Y451960D01*
X741780D02*
X754280D01*
X741780Y431960D02*
Y451960D01*
M02*
