G04*
G04 #@! TF.GenerationSoftware,Altium Limited,Altium Designer,23.4.1 (23)*
G04*
G04 Layer_Physical_Order=2*
G04 Layer_Color=16711680*
%FSLAX44Y44*%
%MOMM*%
G71*
G04*
G04 #@! TF.SameCoordinates,5B4701A4-F384-41A6-9C88-78B9FC1DD21D*
G04*
G04*
G04 #@! TF.FilePolarity,Positive*
G04*
G01*
G75*
%ADD40C,0.2540*%
%ADD41C,0.5080*%
%ADD42C,4.5000*%
%ADD43R,1.7250X1.7250*%
%ADD44C,1.7250*%
%ADD45C,4.8000*%
%ADD46C,1.5240*%
%ADD47R,1.6500X1.6500*%
%ADD48C,1.6500*%
%ADD49C,1.4732*%
%ADD50C,1.2192*%
G36*
X629920Y567690D02*
Y553720D01*
X626110Y549910D01*
X610870D01*
X608330Y547370D01*
Y401320D01*
X613410Y396240D01*
X628650Y396240D01*
X637540Y405130D01*
Y415290D01*
X642620Y420370D01*
X642620D01*
X646430Y424180D01*
X669290Y424180D01*
X671830Y421640D01*
Y407670D01*
X669290Y405130D01*
X661616Y405130D01*
X653364Y396877D01*
D01*
X641350Y383540D01*
X641350Y363220D01*
X641350Y347980D01*
X645160Y344170D01*
X656590Y344170D01*
X681990Y344170D01*
X722630Y384810D01*
X782320D01*
X788670Y378460D01*
X788670Y347980D01*
X797560Y339090D01*
X895350Y339090D01*
X906780Y350520D01*
Y427990D01*
X935990Y457200D01*
X1014730D01*
X1023620Y448310D01*
Y429260D01*
X1019810Y425450D01*
X960120D01*
X949960Y415290D01*
X949960Y300990D01*
X937260Y288290D01*
X610870D01*
X599440Y299720D01*
Y570230D01*
X600710Y571500D01*
X626110D01*
X629920Y567690D01*
D02*
G37*
D40*
X960120Y386080D02*
X1005395D01*
X702310Y485140D02*
X834390Y353060D01*
X618490Y485140D02*
X702310D01*
X618490Y510540D02*
X694690D01*
X834390Y370840D01*
X1010920Y379730D02*
Y380555D01*
X1005395Y386080D02*
X1010920Y380555D01*
D41*
X975706Y408531D02*
X978020Y410845D01*
X960494Y408531D02*
X975706D01*
X978020Y410845D02*
X1011555D01*
X1012190Y411480D01*
X666750Y474980D02*
X675826Y465905D01*
Y463364D02*
Y465905D01*
Y463364D02*
X723900Y415290D01*
X737870D01*
D42*
X1018540Y271780D02*
D03*
X701040Y551180D02*
D03*
X753110Y289560D02*
D03*
D43*
X1012190Y436880D02*
D03*
D44*
Y411480D02*
D03*
Y386080D02*
D03*
Y360680D02*
D03*
Y335280D02*
D03*
Y309880D02*
D03*
D45*
X720090Y344170D02*
D03*
X672090Y316170D02*
D03*
Y374170D02*
D03*
D46*
X737870Y415290D02*
D03*
D47*
X618490Y586740D02*
D03*
D48*
Y561340D02*
D03*
Y535940D02*
D03*
Y510540D02*
D03*
Y485140D02*
D03*
Y459740D02*
D03*
Y434340D02*
D03*
Y408940D02*
D03*
D49*
X647700Y414020D02*
D03*
X960494Y408531D02*
D03*
X952500Y447040D02*
D03*
X662940Y414020D02*
D03*
X666750Y474980D02*
D03*
X774700Y374650D02*
D03*
X919480Y373380D02*
D03*
D50*
X960120Y386080D02*
D03*
X834390Y353060D02*
D03*
Y370840D02*
D03*
M02*
